<svg width="62" height="62" viewBox="0 0 62 62" fill="none" xmlns="http://www.w3.org/2000/svg">
<circle cx="31" cy="31" r="31" fill="white"/>
<path d="M23.052 27.472C24.076 26.6187 24.892 25.9093 25.5 25.344C26.108 24.768 26.6147 24.1707 27.02 23.552C27.4253 22.9333 27.628 22.3253 27.628 21.728C27.628 21.184 27.5 20.7573 27.244 20.448C26.988 20.1387 26.5933 19.984 26.06 19.984C25.5267 19.984 25.116 20.1653 24.828 20.528C24.54 20.88 24.3907 21.3653 24.38 21.984H22.204C22.2467 20.704 22.6253 19.7333 23.34 19.072C24.0653 18.4107 24.9827 18.08 26.092 18.08C27.308 18.08 28.2413 18.4053 28.892 19.056C29.5427 19.696 29.868 20.544 29.868 21.6C29.868 22.432 29.644 23.2267 29.196 23.984C28.748 24.7413 28.236 25.4027 27.66 25.968C27.084 26.5227 26.332 27.1947 25.404 27.984H30.124V29.84H22.22V28.176L23.052 27.472ZM31.5675 21.408C31.6208 20.3413 31.9942 19.52 32.6875 18.944C33.3915 18.3573 34.3142 18.064 35.4555 18.064C36.2342 18.064 36.9008 18.2027 37.4555 18.48C38.0102 18.7467 38.4262 19.1147 38.7035 19.584C38.9915 20.0427 39.1355 20.5653 39.1355 21.152C39.1355 21.824 38.9595 22.3947 38.6075 22.864C38.2662 23.3227 37.8555 23.632 37.3755 23.792V23.856C37.9942 24.048 38.4742 24.3893 38.8155 24.88C39.1675 25.3707 39.3435 26 39.3435 26.768C39.3435 27.408 39.1942 27.9787 38.8955 28.48C38.6075 28.9813 38.1755 29.376 37.5995 29.664C37.0342 29.9413 36.3515 30.08 35.5515 30.08C34.3462 30.08 33.3648 29.776 32.6075 29.168C31.8502 28.56 31.4502 27.664 31.4075 26.48H33.5835C33.6048 27.0027 33.7808 27.424 34.1115 27.744C34.4528 28.0533 34.9168 28.208 35.5035 28.208C36.0475 28.208 36.4635 28.0587 36.7515 27.76C37.0502 27.4507 37.1995 27.056 37.1995 26.576C37.1995 25.936 36.9968 25.4773 36.5915 25.2C36.1862 24.9227 35.5568 24.784 34.7035 24.784H34.2395V22.944H34.7035C36.2182 22.944 36.9755 22.4373 36.9755 21.424C36.9755 20.9653 36.8368 20.608 36.5595 20.352C36.2928 20.096 35.9035 19.968 35.3915 19.968C34.8902 19.968 34.5008 20.1067 34.2235 20.384C33.9568 20.6507 33.8022 20.992 33.7595 21.408H31.5675Z" fill="black"/>
<path d="M21.754 35.333V43H20.753V39.524H16.848V43H15.847V35.333H16.848V38.699H20.753V35.333H21.754ZM26.0922 43.099C25.5275 43.099 25.0142 42.9707 24.5522 42.714C24.0975 42.4573 23.7382 42.0943 23.4742 41.625C23.2175 41.1483 23.0892 40.5983 23.0892 39.975C23.0892 39.359 23.2212 38.8163 23.4852 38.347C23.7565 37.8703 24.1232 37.5073 24.5852 37.258C25.0472 37.0013 25.5642 36.873 26.1362 36.873C26.7082 36.873 27.2252 37.0013 27.6872 37.258C28.1492 37.5073 28.5122 37.8667 28.7762 38.336C29.0475 38.8053 29.1832 39.3517 29.1832 39.975C29.1832 40.5983 29.0439 41.1483 28.7652 41.625C28.4939 42.0943 28.1235 42.4573 27.6542 42.714C27.1849 42.9707 26.6642 43.099 26.0922 43.099ZM26.0922 42.219C26.4515 42.219 26.7889 42.1347 27.1042 41.966C27.4195 41.7973 27.6725 41.5443 27.8632 41.207C28.0612 40.8697 28.1602 40.459 28.1602 39.975C28.1602 39.491 28.0649 39.0803 27.8742 38.743C27.6835 38.4057 27.4342 38.1563 27.1262 37.995C26.8182 37.8263 26.4845 37.742 26.1252 37.742C25.7585 37.742 25.4212 37.8263 25.1132 37.995C24.8125 38.1563 24.5705 38.4057 24.3872 38.743C24.2039 39.0803 24.1122 39.491 24.1122 39.975C24.1122 40.4663 24.2002 40.8807 24.3762 41.218C24.5595 41.5553 24.8015 41.8083 25.1022 41.977C25.4029 42.1383 25.7329 42.219 26.0922 42.219ZM35.8453 36.972V43H34.8443V42.109C34.6537 42.417 34.386 42.659 34.0413 42.835C33.704 43.0037 33.33 43.088 32.9193 43.088C32.45 43.088 32.0283 42.9927 31.6543 42.802C31.2803 42.604 30.9833 42.3107 30.7633 41.922C30.5507 41.5333 30.4443 41.0603 30.4443 40.503V36.972H31.4343V40.371C31.4343 40.965 31.5847 41.4233 31.8853 41.746C32.186 42.0613 32.5967 42.219 33.1173 42.219C33.6527 42.219 34.0743 42.054 34.3823 41.724C34.6903 41.394 34.8443 40.9137 34.8443 40.283V36.972H35.8453ZM38.5365 37.951C38.7125 37.6063 38.9618 37.3387 39.2845 37.148C39.6145 36.9573 40.0141 36.862 40.4835 36.862V37.896H40.2195C39.0975 37.896 38.5365 38.5047 38.5365 39.722V43H37.5355V36.972H38.5365V37.951ZM43.773 43.099C43.311 43.099 42.8967 43.022 42.53 42.868C42.1633 42.7067 41.8737 42.4867 41.661 42.208C41.4483 41.922 41.331 41.5957 41.309 41.229H42.343C42.3723 41.5297 42.5117 41.7753 42.761 41.966C43.0177 42.1567 43.3513 42.252 43.762 42.252C44.1433 42.252 44.444 42.1677 44.664 41.999C44.884 41.8303 44.994 41.6177 44.994 41.361C44.994 41.097 44.8767 40.9027 44.642 40.778C44.4073 40.646 44.0443 40.5177 43.553 40.393C43.1057 40.2757 42.739 40.1583 42.453 40.041C42.1743 39.9163 41.9323 39.7367 41.727 39.502C41.529 39.26 41.43 38.9447 41.43 38.556C41.43 38.248 41.5217 37.9657 41.705 37.709C41.8883 37.4523 42.1487 37.2507 42.486 37.104C42.8233 36.95 43.2083 36.873 43.641 36.873C44.3083 36.873 44.8473 37.0417 45.258 37.379C45.6687 37.7163 45.8887 38.1783 45.918 38.765H44.917C44.895 38.4497 44.7667 38.1967 44.532 38.006C44.3047 37.8153 43.9967 37.72 43.608 37.72C43.2487 37.72 42.9627 37.797 42.75 37.951C42.5373 38.105 42.431 38.3067 42.431 38.556C42.431 38.754 42.4933 38.919 42.618 39.051C42.75 39.1757 42.9113 39.2783 43.102 39.359C43.3 39.4323 43.5713 39.5167 43.916 39.612C44.3487 39.7293 44.7007 39.8467 44.972 39.964C45.2433 40.074 45.4743 40.2427 45.665 40.47C45.863 40.6973 45.9657 40.9943 45.973 41.361C45.973 41.691 45.8813 41.988 45.698 42.252C45.5147 42.516 45.2543 42.725 44.917 42.879C44.587 43.0257 44.2057 43.099 43.773 43.099Z" fill="black"/>
</svg>
