<svg width="62" height="62" viewBox="0 0 62 62" fill="none" xmlns="http://www.w3.org/2000/svg">
<circle cx="31" cy="31" r="31" fill="white"/>
<path d="M21.348 24.016C21.348 22.1707 21.6787 20.7253 22.34 19.68C23.012 18.6347 24.1213 18.112 25.668 18.112C27.2147 18.112 28.3187 18.6347 28.98 19.68C29.652 20.7253 29.988 22.1707 29.988 24.016C29.988 25.872 29.652 27.328 28.98 28.384C28.3187 29.44 27.2147 29.968 25.668 29.968C24.1213 29.968 23.012 29.44 22.34 28.384C21.6787 27.328 21.348 25.872 21.348 24.016ZM27.78 24.016C27.78 23.2267 27.7267 22.5653 27.62 22.032C27.524 21.488 27.3213 21.0453 27.012 20.704C26.7133 20.3627 26.2653 20.192 25.668 20.192C25.0707 20.192 24.6173 20.3627 24.308 20.704C24.0093 21.0453 23.8067 21.488 23.7 22.032C23.604 22.5653 23.556 23.2267 23.556 24.016C23.556 24.8267 23.604 25.5093 23.7 26.064C23.796 26.608 23.9987 27.0507 24.308 27.392C24.6173 27.7227 25.0707 27.888 25.668 27.888C26.2653 27.888 26.7187 27.7227 27.028 27.392C27.3373 27.0507 27.54 26.608 27.636 26.064C27.732 25.5093 27.78 24.8267 27.78 24.016ZM39.5318 20.272H34.3478V23.008C34.5718 22.7307 34.8918 22.5067 35.3078 22.336C35.7238 22.1547 36.1664 22.064 36.6358 22.064C37.4891 22.064 38.1878 22.2507 38.7318 22.624C39.2758 22.9973 39.6704 23.4773 39.9158 24.064C40.1611 24.64 40.2838 25.2587 40.2838 25.92C40.2838 27.1467 39.9318 28.1333 39.2278 28.88C38.5344 29.6267 37.5424 30 36.2518 30C35.0358 30 34.0651 29.696 33.3398 29.088C32.6144 28.48 32.2038 27.6853 32.1078 26.704H34.2838C34.3798 27.1307 34.5931 27.472 34.9238 27.728C35.2651 27.984 35.6971 28.112 36.2198 28.112C36.8491 28.112 37.3238 27.9147 37.6438 27.52C37.9638 27.1253 38.1238 26.6027 38.1238 25.952C38.1238 25.2907 37.9584 24.7893 37.6278 24.448C37.3078 24.096 36.8331 23.92 36.2038 23.92C35.7558 23.92 35.3824 24.032 35.0838 24.256C34.7851 24.48 34.5718 24.7787 34.4438 25.152H32.2998V18.304H39.5318V20.272Z" fill="black"/>
<path d="M20.234 35.333C21.07 35.333 21.7923 35.4907 22.401 35.806C23.017 36.114 23.4863 36.5577 23.809 37.137C24.139 37.7163 24.304 38.3983 24.304 39.183C24.304 39.9677 24.139 40.6497 23.809 41.229C23.4863 41.801 23.017 42.241 22.401 42.549C21.7923 42.8497 21.07 43 20.234 43H17.847V35.333H20.234ZM20.234 42.175C21.224 42.175 21.9793 41.9147 22.5 41.394C23.0207 40.866 23.281 40.129 23.281 39.183C23.281 38.2297 23.017 37.4853 22.489 36.95C21.9683 36.4147 21.2167 36.147 20.234 36.147H18.848V42.175H20.234ZM25.2503 39.964C25.2503 39.348 25.375 38.809 25.6243 38.347C25.8737 37.8777 26.2147 37.5147 26.6473 37.258C27.0873 37.0013 27.575 36.873 28.1103 36.873C28.6383 36.873 29.0967 36.9867 29.4853 37.214C29.874 37.4413 30.1637 37.7273 30.3543 38.072V36.972H31.3663V43H30.3543V41.878C30.1563 42.23 29.8593 42.5233 29.4633 42.758C29.0747 42.9853 28.62 43.099 28.0993 43.099C27.564 43.099 27.08 42.967 26.6473 42.703C26.2147 42.439 25.8737 42.0687 25.6243 41.592C25.375 41.1153 25.2503 40.5727 25.2503 39.964ZM30.3543 39.975C30.3543 39.5203 30.2627 39.1243 30.0793 38.787C29.896 38.4497 29.6467 38.193 29.3313 38.017C29.0233 37.8337 28.6823 37.742 28.3083 37.742C27.9343 37.742 27.5933 37.83 27.2853 38.006C26.9773 38.182 26.7317 38.4387 26.5483 38.776C26.365 39.1133 26.2733 39.5093 26.2733 39.964C26.2733 40.426 26.365 40.8293 26.5483 41.174C26.7317 41.5113 26.9773 41.7717 27.2853 41.955C27.5933 42.131 27.9343 42.219 28.3083 42.219C28.6823 42.219 29.0233 42.131 29.3313 41.955C29.6467 41.7717 29.896 41.5113 30.0793 41.174C30.2627 40.8293 30.3543 40.4297 30.3543 39.975ZM38.2499 36.972L34.6199 45.838H33.5859L34.7739 42.934L32.3429 36.972H33.4539L35.3459 41.856L37.2159 36.972H38.2499ZM41.3902 43.099C40.9282 43.099 40.5138 43.022 40.1472 42.868C39.7805 42.7067 39.4908 42.4867 39.2782 42.208C39.0655 41.922 38.9482 41.5957 38.9262 41.229H39.9602C39.9895 41.5297 40.1288 41.7753 40.3782 41.966C40.6348 42.1567 40.9685 42.252 41.3792 42.252C41.7605 42.252 42.0612 42.1677 42.2812 41.999C42.5012 41.8303 42.6112 41.6177 42.6112 41.361C42.6112 41.097 42.4938 40.9027 42.2592 40.778C42.0245 40.646 41.6615 40.5177 41.1702 40.393C40.7228 40.2757 40.3562 40.1583 40.0702 40.041C39.7915 39.9163 39.5495 39.7367 39.3442 39.502C39.1462 39.26 39.0472 38.9447 39.0472 38.556C39.0472 38.248 39.1388 37.9657 39.3222 37.709C39.5055 37.4523 39.7658 37.2507 40.1032 37.104C40.4405 36.95 40.8255 36.873 41.2582 36.873C41.9255 36.873 42.4645 37.0417 42.8752 37.379C43.2858 37.7163 43.5058 38.1783 43.5352 38.765H42.5342C42.5122 38.4497 42.3838 38.1967 42.1492 38.006C41.9218 37.8153 41.6138 37.72 41.2252 37.72C40.8658 37.72 40.5798 37.797 40.3672 37.951C40.1545 38.105 40.0482 38.3067 40.0482 38.556C40.0482 38.754 40.1105 38.919 40.2352 39.051C40.3672 39.1757 40.5285 39.2783 40.7192 39.359C40.9172 39.4323 41.1885 39.5167 41.5332 39.612C41.9658 39.7293 42.3178 39.8467 42.5892 39.964C42.8605 40.074 43.0915 40.2427 43.2822 40.47C43.4802 40.6973 43.5828 40.9943 43.5902 41.361C43.5902 41.691 43.4985 41.988 43.3152 42.252C43.1318 42.516 42.8715 42.725 42.5342 42.879C42.2042 43.0257 41.8228 43.099 41.3902 43.099Z" fill="black"/>
</svg>
