<svg width="62" height="62" viewBox="0 0 62 62" fill="none" xmlns="http://www.w3.org/2000/svg">
<circle cx="31" cy="31" r="31" fill="white"/>
<path d="M29.188 20.272H24.004V23.008C24.228 22.7307 24.548 22.5067 24.964 22.336C25.38 22.1547 25.8227 22.064 26.292 22.064C27.1453 22.064 27.844 22.2507 28.388 22.624C28.932 22.9973 29.3267 23.4773 29.572 24.064C29.8173 24.64 29.94 25.2587 29.94 25.92C29.94 27.1467 29.588 28.1333 28.884 28.88C28.1907 29.6267 27.1987 30 25.908 30C24.692 30 23.7213 29.696 22.996 29.088C22.2707 28.48 21.86 27.6853 21.764 26.704H23.94C24.036 27.1307 24.2493 27.472 24.58 27.728C24.9213 27.984 25.3533 28.112 25.876 28.112C26.5053 28.112 26.98 27.9147 27.3 27.52C27.62 27.1253 27.78 26.6027 27.78 25.952C27.78 25.2907 27.6147 24.7893 27.284 24.448C26.964 24.096 26.4893 23.92 25.86 23.92C25.412 23.92 25.0387 24.032 24.74 24.256C24.4413 24.48 24.228 24.7787 24.1 25.152H21.956V18.304H29.188V20.272ZM34.2369 26.72C34.3222 27.1893 34.5142 27.552 34.8129 27.808C35.1222 28.0533 35.5329 28.176 36.0449 28.176C36.7062 28.176 37.1862 27.904 37.4849 27.36C37.7835 26.8053 37.9329 25.8773 37.9329 24.576C37.6875 24.9173 37.3409 25.184 36.8929 25.376C36.4555 25.568 35.9809 25.664 35.4689 25.664C34.7862 25.664 34.1675 25.5253 33.6129 25.248C33.0689 24.96 32.6369 24.5387 32.3169 23.984C31.9969 23.4187 31.8369 22.736 31.8369 21.936C31.8369 20.752 32.1889 19.8133 32.8929 19.12C33.5969 18.416 34.5569 18.064 35.7729 18.064C37.2875 18.064 38.3542 18.5493 38.9729 19.52C39.6022 20.4907 39.9169 21.952 39.9169 23.904C39.9169 25.2907 39.7942 26.4267 39.5489 27.312C39.3142 28.1973 38.9035 28.8693 38.3169 29.328C37.7409 29.7867 36.9515 30.016 35.9489 30.016C35.1595 30.016 34.4875 29.8667 33.9329 29.568C33.3782 29.2587 32.9515 28.8587 32.6529 28.368C32.3649 27.8667 32.1995 27.3173 32.1569 26.72H34.2369ZM35.9329 23.84C36.4875 23.84 36.9249 23.6693 37.2449 23.328C37.5649 22.9867 37.7249 22.528 37.7249 21.952C37.7249 21.3227 37.5542 20.8373 37.2129 20.496C36.8822 20.144 36.4289 19.968 35.8529 19.968C35.2769 19.968 34.8182 20.1493 34.4769 20.512C34.1462 20.864 33.9809 21.3333 33.9809 21.92C33.9809 22.4853 34.1409 22.9493 34.4609 23.312C34.7915 23.664 35.2822 23.84 35.9329 23.84Z" fill="black"/>
<path d="M18.124 35.388V43H17.123V37.324L14.593 43H13.889L11.348 37.313V43H10.347V35.388H11.425L14.241 41.68L17.057 35.388H18.124ZM20.3386 35.993C20.1479 35.993 19.9866 35.927 19.8546 35.795C19.7226 35.663 19.6566 35.5017 19.6566 35.311C19.6566 35.1203 19.7226 34.959 19.8546 34.827C19.9866 34.695 20.1479 34.629 20.3386 34.629C20.5219 34.629 20.6759 34.695 20.8006 34.827C20.9326 34.959 20.9986 35.1203 20.9986 35.311C20.9986 35.5017 20.9326 35.663 20.8006 35.795C20.6759 35.927 20.5219 35.993 20.3386 35.993ZM20.8226 36.972V43H19.8216V36.972H20.8226ZM25.4656 36.862C26.199 36.862 26.793 37.0857 27.2476 37.533C27.7023 37.973 27.9296 38.611 27.9296 39.447V43H26.9396V39.59C26.9396 38.9887 26.7893 38.5303 26.4886 38.215C26.188 37.8923 25.7773 37.731 25.2566 37.731C24.7286 37.731 24.307 37.896 23.9916 38.226C23.6836 38.556 23.5296 39.0363 23.5296 39.667V43H22.5286V36.972H23.5296V37.83C23.7276 37.522 23.9953 37.2837 24.3326 37.115C24.6773 36.9463 25.055 36.862 25.4656 36.862ZM34.9108 36.972V43H33.9098V42.109C33.7191 42.417 33.4514 42.659 33.1068 42.835C32.7694 43.0037 32.3954 43.088 31.9848 43.088C31.5154 43.088 31.0938 42.9927 30.7198 42.802C30.3458 42.604 30.0488 42.3107 29.8288 41.922C29.6161 41.5333 29.5098 41.0603 29.5098 40.503V36.972H30.4998V40.371C30.4998 40.965 30.6501 41.4233 30.9508 41.746C31.2514 42.0613 31.6621 42.219 32.1828 42.219C32.7181 42.219 33.1398 42.054 33.4478 41.724C33.7558 41.394 33.9098 40.9137 33.9098 40.283V36.972H34.9108ZM37.8219 37.797V41.35C37.8219 41.6433 37.8842 41.8523 38.0089 41.977C38.1336 42.0943 38.3499 42.153 38.6579 42.153H39.3949V43H38.4929C37.9356 43 37.5176 42.8717 37.2389 42.615C36.9602 42.3583 36.8209 41.9367 36.8209 41.35V37.797H36.0399V36.972H36.8209V35.454H37.8219V36.972H39.3949V37.797H37.8219ZM46.1077 39.755C46.1077 39.9457 46.0967 40.1473 46.0747 40.36H41.2567C41.2934 40.954 41.4951 41.4197 41.8617 41.757C42.2357 42.087 42.6867 42.252 43.2147 42.252C43.6474 42.252 44.0067 42.153 44.2927 41.955C44.5861 41.7497 44.7914 41.4783 44.9087 41.141H45.9867C45.8254 41.7203 45.5027 42.1933 45.0187 42.56C44.5347 42.9193 43.9334 43.099 43.2147 43.099C42.6427 43.099 42.1294 42.9707 41.6747 42.714C41.2274 42.4573 40.8754 42.0943 40.6187 41.625C40.3621 41.1483 40.2337 40.5983 40.2337 39.975C40.2337 39.3517 40.3584 38.8053 40.6077 38.336C40.8571 37.8667 41.2054 37.5073 41.6527 37.258C42.1074 37.0013 42.6281 36.873 43.2147 36.873C43.7867 36.873 44.2927 36.9977 44.7327 37.247C45.1727 37.4963 45.5101 37.841 45.7447 38.281C45.9867 38.7137 46.1077 39.205 46.1077 39.755ZM45.0737 39.546C45.0737 39.1647 44.9894 38.8383 44.8207 38.567C44.6521 38.2883 44.4211 38.0793 44.1277 37.94C43.8417 37.7933 43.5227 37.72 43.1707 37.72C42.6647 37.72 42.2321 37.8813 41.8727 38.204C41.5207 38.5267 41.3191 38.974 41.2677 39.546H45.0737ZM49.563 43.099C49.101 43.099 48.6867 43.022 48.32 42.868C47.9534 42.7067 47.6637 42.4867 47.451 42.208C47.2384 41.922 47.121 41.5957 47.099 41.229H48.133C48.1624 41.5297 48.3017 41.7753 48.551 41.966C48.8077 42.1567 49.1414 42.252 49.552 42.252C49.9334 42.252 50.234 42.1677 50.454 41.999C50.674 41.8303 50.784 41.6177 50.784 41.361C50.784 41.097 50.6667 40.9027 50.432 40.778C50.1974 40.646 49.8344 40.5177 49.343 40.393C48.8957 40.2757 48.529 40.1583 48.243 40.041C47.9644 39.9163 47.7224 39.7367 47.517 39.502C47.319 39.26 47.22 38.9447 47.22 38.556C47.22 38.248 47.3117 37.9657 47.495 37.709C47.6784 37.4523 47.9387 37.2507 48.276 37.104C48.6134 36.95 48.9984 36.873 49.431 36.873C50.0984 36.873 50.6374 37.0417 51.048 37.379C51.4587 37.7163 51.6787 38.1783 51.708 38.765H50.707C50.685 38.4497 50.5567 38.1967 50.322 38.006C50.0947 37.8153 49.7867 37.72 49.398 37.72C49.0387 37.72 48.7527 37.797 48.54 37.951C48.3274 38.105 48.221 38.3067 48.221 38.556C48.221 38.754 48.2834 38.919 48.408 39.051C48.54 39.1757 48.7014 39.2783 48.892 39.359C49.09 39.4323 49.3614 39.5167 49.706 39.612C50.1387 39.7293 50.4907 39.8467 50.762 39.964C51.0334 40.074 51.2644 40.2427 51.455 40.47C51.653 40.6973 51.7557 40.9943 51.763 41.361C51.763 41.691 51.6714 41.988 51.488 42.252C51.3047 42.516 51.0444 42.725 50.707 42.879C50.377 43.0257 49.9957 43.099 49.563 43.099Z" fill="black"/>
</svg>
