<svg width="62" height="62" viewBox="0 0 62 62" fill="none" xmlns="http://www.w3.org/2000/svg">
<circle cx="31" cy="31" r="31" fill="white"/>
<path d="M21.88 21.408C21.9333 20.3413 22.3067 19.52 23 18.944C23.704 18.3573 24.6267 18.064 25.768 18.064C26.5467 18.064 27.2133 18.2027 27.768 18.48C28.3227 18.7467 28.7387 19.1147 29.016 19.584C29.304 20.0427 29.448 20.5653 29.448 21.152C29.448 21.824 29.272 22.3947 28.92 22.864C28.5787 23.3227 28.168 23.632 27.688 23.792V23.856C28.3067 24.048 28.7867 24.3893 29.128 24.88C29.48 25.3707 29.656 26 29.656 26.768C29.656 27.408 29.5067 27.9787 29.208 28.48C28.92 28.9813 28.488 29.376 27.912 29.664C27.3467 29.9413 26.664 30.08 25.864 30.08C24.6587 30.08 23.6773 29.776 22.92 29.168C22.1627 28.56 21.7627 27.664 21.72 26.48H23.896C23.9173 27.0027 24.0933 27.424 24.424 27.744C24.7653 28.0533 25.2293 28.208 25.816 28.208C26.36 28.208 26.776 28.0587 27.064 27.76C27.3627 27.4507 27.512 27.056 27.512 26.576C27.512 25.936 27.3093 25.4773 26.904 25.2C26.4987 24.9227 25.8693 24.784 25.016 24.784H24.552V22.944H25.016C26.5307 22.944 27.288 22.4373 27.288 21.424C27.288 20.9653 27.1493 20.608 26.872 20.352C26.6053 20.096 26.216 19.968 25.704 19.968C25.2027 19.968 24.8133 20.1067 24.536 20.384C24.2693 20.6507 24.1147 20.992 24.072 21.408H21.88ZM39.2661 20.272H34.0821V23.008C34.3061 22.7307 34.6261 22.5067 35.0421 22.336C35.4581 22.1547 35.9008 22.064 36.3701 22.064C37.2235 22.064 37.9221 22.2507 38.4661 22.624C39.0101 22.9973 39.4048 23.4773 39.6501 24.064C39.8955 24.64 40.0181 25.2587 40.0181 25.92C40.0181 27.1467 39.6661 28.1333 38.9621 28.88C38.2688 29.6267 37.2768 30 35.9861 30C34.7701 30 33.7995 29.696 33.0741 29.088C32.3488 28.48 31.9381 27.6853 31.8421 26.704H34.0181C34.1141 27.1307 34.3275 27.472 34.6581 27.728C34.9995 27.984 35.4315 28.112 35.9541 28.112C36.5835 28.112 37.0581 27.9147 37.3781 27.52C37.6981 27.1253 37.8581 26.6027 37.8581 25.952C37.8581 25.2907 37.6928 24.7893 37.3621 24.448C37.0421 24.096 36.5675 23.92 35.9381 23.92C35.4901 23.92 35.1168 24.032 34.8181 24.256C34.5195 24.48 34.3061 24.7787 34.1781 25.152H32.0341V18.304H39.2661V20.272Z" fill="black"/>
<path d="M10.278 43.077C9.772 43.077 9.31733 42.989 8.914 42.813C8.518 42.6297 8.20633 42.3803 7.979 42.065C7.75167 41.7423 7.63433 41.372 7.627 40.954H8.694C8.73067 41.3133 8.87733 41.6177 9.134 41.867C9.398 42.109 9.77933 42.23 10.278 42.23C10.7547 42.23 11.1287 42.1127 11.4 41.878C11.6787 41.636 11.818 41.328 11.818 40.954C11.818 40.6607 11.7373 40.4223 11.576 40.239C11.4147 40.0557 11.213 39.9163 10.971 39.821C10.729 39.7257 10.4027 39.623 9.992 39.513C9.486 39.381 9.079 39.249 8.771 39.117C8.47033 38.985 8.21 38.7797 7.99 38.501C7.77733 38.215 7.671 37.8337 7.671 37.357C7.671 36.939 7.77733 36.5687 7.99 36.246C8.20267 35.9233 8.49967 35.674 8.881 35.498C9.26967 35.322 9.71333 35.234 10.212 35.234C10.9307 35.234 11.5173 35.4137 11.972 35.773C12.434 36.1323 12.6943 36.609 12.753 37.203H11.653C11.6163 36.9097 11.4623 36.653 11.191 36.433C10.9197 36.2057 10.5603 36.092 10.113 36.092C9.695 36.092 9.354 36.202 9.09 36.422C8.826 36.6347 8.694 36.9353 8.694 37.324C8.694 37.6027 8.771 37.83 8.925 38.006C9.08633 38.182 9.28067 38.3177 9.508 38.413C9.74267 38.501 10.069 38.6037 10.487 38.721C10.993 38.8603 11.4 38.9997 11.708 39.139C12.016 39.271 12.28 39.48 12.5 39.766C12.72 40.0447 12.83 40.426 12.83 40.91C12.83 41.284 12.731 41.636 12.533 41.966C12.335 42.296 12.0417 42.5637 11.653 42.769C11.2643 42.9743 10.806 43.077 10.278 43.077ZM19.8031 39.755C19.8031 39.9457 19.7921 40.1473 19.7701 40.36H14.9521C14.9887 40.954 15.1904 41.4197 15.5571 41.757C15.9311 42.087 16.3821 42.252 16.9101 42.252C17.3427 42.252 17.7021 42.153 17.9881 41.955C18.2814 41.7497 18.4867 41.4783 18.6041 41.141H19.6821C19.5207 41.7203 19.1981 42.1933 18.7141 42.56C18.2301 42.9193 17.6287 43.099 16.9101 43.099C16.3381 43.099 15.8247 42.9707 15.3701 42.714C14.9227 42.4573 14.5707 42.0943 14.3141 41.625C14.0574 41.1483 13.9291 40.5983 13.9291 39.975C13.9291 39.3517 14.0537 38.8053 14.3031 38.336C14.5524 37.8667 14.9007 37.5073 15.3481 37.258C15.8027 37.0013 16.3234 36.873 16.9101 36.873C17.4821 36.873 17.9881 36.9977 18.4281 37.247C18.8681 37.4963 19.2054 37.841 19.4401 38.281C19.6821 38.7137 19.8031 39.205 19.8031 39.755ZM18.7691 39.546C18.7691 39.1647 18.6847 38.8383 18.5161 38.567C18.3474 38.2883 18.1164 38.0793 17.8231 37.94C17.5371 37.7933 17.2181 37.72 16.8661 37.72C16.3601 37.72 15.9274 37.8813 15.5681 38.204C15.2161 38.5267 15.0144 38.974 14.9631 39.546H18.7691ZM20.7503 39.975C20.7503 39.3517 20.875 38.809 21.1243 38.347C21.3737 37.8777 21.7183 37.5147 22.1583 37.258C22.6057 37.0013 23.1153 36.873 23.6873 36.873C24.428 36.873 25.0367 37.0527 25.5133 37.412C25.9973 37.7713 26.3163 38.27 26.4703 38.908H25.3923C25.2897 38.5413 25.088 38.2517 24.7873 38.039C24.494 37.8263 24.1273 37.72 23.6873 37.72C23.1153 37.72 22.6533 37.918 22.3013 38.314C21.9493 38.7027 21.7733 39.2563 21.7733 39.975C21.7733 40.701 21.9493 41.262 22.3013 41.658C22.6533 42.054 23.1153 42.252 23.6873 42.252C24.1273 42.252 24.494 42.1493 24.7873 41.944C25.0807 41.7387 25.2823 41.4453 25.3923 41.064H26.4703C26.309 41.68 25.9863 42.175 25.5023 42.549C25.0183 42.9157 24.4133 43.099 23.6873 43.099C23.1153 43.099 22.6057 42.9707 22.1583 42.714C21.7183 42.4573 21.3737 42.0943 21.1243 41.625C20.875 41.1557 20.7503 40.6057 20.7503 39.975ZM30.435 43.099C29.8703 43.099 29.357 42.9707 28.895 42.714C28.4403 42.4573 28.081 42.0943 27.817 41.625C27.5603 41.1483 27.432 40.5983 27.432 39.975C27.432 39.359 27.564 38.8163 27.828 38.347C28.0993 37.8703 28.466 37.5073 28.928 37.258C29.39 37.0013 29.907 36.873 30.479 36.873C31.051 36.873 31.568 37.0013 32.03 37.258C32.492 37.5073 32.855 37.8667 33.119 38.336C33.3903 38.8053 33.526 39.3517 33.526 39.975C33.526 40.5983 33.3867 41.1483 33.108 41.625C32.8367 42.0943 32.4663 42.4573 31.997 42.714C31.5277 42.9707 31.007 43.099 30.435 43.099ZM30.435 42.219C30.7943 42.219 31.1317 42.1347 31.447 41.966C31.7623 41.7973 32.0153 41.5443 32.206 41.207C32.404 40.8697 32.503 40.459 32.503 39.975C32.503 39.491 32.4077 39.0803 32.217 38.743C32.0263 38.4057 31.777 38.1563 31.469 37.995C31.161 37.8263 30.8273 37.742 30.468 37.742C30.1013 37.742 29.764 37.8263 29.456 37.995C29.1553 38.1563 28.9133 38.4057 28.73 38.743C28.5467 39.0803 28.455 39.491 28.455 39.975C28.455 40.4663 28.543 40.8807 28.719 41.218C28.9023 41.5553 29.1443 41.8083 29.445 41.977C29.7457 42.1383 30.0757 42.219 30.435 42.219ZM37.7791 36.862C38.5125 36.862 39.1065 37.0857 39.5611 37.533C40.0158 37.973 40.2431 38.611 40.2431 39.447V43H39.2531V39.59C39.2531 38.9887 39.1028 38.5303 38.8021 38.215C38.5015 37.8923 38.0908 37.731 37.5701 37.731C37.0421 37.731 36.6205 37.896 36.3051 38.226C35.9971 38.556 35.8431 39.0363 35.8431 39.667V43H34.8421V36.972H35.8431V37.83C36.0411 37.522 36.3088 37.2837 36.6461 37.115C36.9908 36.9463 37.3685 36.862 37.7791 36.862ZM41.5043 39.964C41.5043 39.348 41.6289 38.809 41.8783 38.347C42.1276 37.8777 42.4686 37.5147 42.9013 37.258C43.3413 37.0013 43.8326 36.873 44.3753 36.873C44.8446 36.873 45.2809 36.983 45.6843 37.203C46.0876 37.4157 46.3956 37.698 46.6083 38.05V34.86H47.6203V43H46.6083V41.867C46.4103 42.2263 46.1169 42.5233 45.7283 42.758C45.3396 42.9853 44.8849 43.099 44.3643 43.099C43.8289 43.099 43.3413 42.967 42.9013 42.703C42.4686 42.439 42.1276 42.0687 41.8783 41.592C41.6289 41.1153 41.5043 40.5727 41.5043 39.964ZM46.6083 39.975C46.6083 39.5203 46.5166 39.1243 46.3333 38.787C46.1499 38.4497 45.9006 38.193 45.5853 38.017C45.2773 37.8337 44.9363 37.742 44.5623 37.742C44.1883 37.742 43.8473 37.83 43.5393 38.006C43.2313 38.182 42.9856 38.4387 42.8023 38.776C42.6189 39.1133 42.5273 39.5093 42.5273 39.964C42.5273 40.426 42.6189 40.8293 42.8023 41.174C42.9856 41.5113 43.2313 41.7717 43.5393 41.955C43.8473 42.131 44.1883 42.219 44.5623 42.219C44.9363 42.219 45.2773 42.131 45.5853 41.955C45.9006 41.7717 46.1499 41.5113 46.3333 41.174C46.5166 40.8293 46.6083 40.4297 46.6083 39.975ZM51.4458 43.099C50.9838 43.099 50.5695 43.022 50.2028 42.868C49.8362 42.7067 49.5465 42.4867 49.3338 42.208C49.1212 41.922 49.0038 41.5957 48.9818 41.229H50.0158C50.0452 41.5297 50.1845 41.7753 50.4338 41.966C50.6905 42.1567 51.0242 42.252 51.4348 42.252C51.8162 42.252 52.1168 42.1677 52.3368 41.999C52.5568 41.8303 52.6668 41.6177 52.6668 41.361C52.6668 41.097 52.5495 40.9027 52.3148 40.778C52.0802 40.646 51.7172 40.5177 51.2258 40.393C50.7785 40.2757 50.4118 40.1583 50.1258 40.041C49.8472 39.9163 49.6052 39.7367 49.3998 39.502C49.2018 39.26 49.1028 38.9447 49.1028 38.556C49.1028 38.248 49.1945 37.9657 49.3778 37.709C49.5612 37.4523 49.8215 37.2507 50.1588 37.104C50.4962 36.95 50.8812 36.873 51.3138 36.873C51.9812 36.873 52.5202 37.0417 52.9308 37.379C53.3415 37.7163 53.5615 38.1783 53.5908 38.765H52.5898C52.5678 38.4497 52.4395 38.1967 52.2048 38.006C51.9775 37.8153 51.6695 37.72 51.2808 37.72C50.9215 37.72 50.6355 37.797 50.4228 37.951C50.2102 38.105 50.1038 38.3067 50.1038 38.556C50.1038 38.754 50.1662 38.919 50.2908 39.051C50.4228 39.1757 50.5842 39.2783 50.7748 39.359C50.9728 39.4323 51.2442 39.5167 51.5888 39.612C52.0215 39.7293 52.3735 39.8467 52.6448 39.964C52.9162 40.074 53.1472 40.2427 53.3378 40.47C53.5358 40.6973 53.6385 40.9943 53.6458 41.361C53.6458 41.691 53.5542 41.988 53.3708 42.252C53.1875 42.516 52.9272 42.725 52.5898 42.879C52.2598 43.0257 51.8785 43.099 51.4458 43.099Z" fill="black"/>
</svg>
